<?xml version="1.0"?>
<svg xmlns="http://www.w3.org/2000/svg" height="512px" viewBox="0 0 512 512" width="512px"><path d="m462.886719 158.289062c18.152343 7.410157 28.023437 12.980469 28.152343 13.054688l19.925782-34.6875c-3.136719-1.800781-62.242188-35.128906-161.332032-49.808594 4.0625-8.082031 6.367188-17.199218 6.367188-26.847656 0-33.085938-26.914062-60-60-60-15.355469 0-29.375 5.804688-40 15.328125-10.625-9.523437-24.644531-15.328125-40-15.328125-33.085938 0-60 26.914062-60 60 0 9.625 2.289062 18.722656 6.335938 26.789062-40.6875 6.03125-74.5 15.234376-100.441407 24.109376l-.152343-.066407c-.019532.046875-.042969.09375-.0625.140625-37.035157 12.695313-57.957032 24.699219-59.773438 25.757813l20.152344 34.554687c.132812-.074218 8.308594-4.765625 23.472656-11.246094-9.078125 32.171876-17.851562 68.550782-21.371094 83.429688-4.03125 17.058594-24.160156 103.339844-24.160156 126.53125 0 58.082031 27.496094 98.480469 81.726562 120.070312 48.535157 19.324219 115.332032 21.929688 174.273438 21.929688s125.738281-2.605469 174.273438-21.929688c54.230468-21.589843 81.726562-61.988281 81.726562-120.070312 0-26.234375-30.621094-145.371094-49.113281-211.710938zm-166.886719-118.289062c11.027344 0 20 8.972656 20 20s-8.972656 20-20 20-20-8.972656-20-20 8.972656-20 20-20zm-80 0c11.027344 0 20 8.972656 20 20s-8.972656 20-20 20-20-8.972656-20-20 8.972656-20 20-20zm40 432c-159.476562 0-216-26.691406-216-102 0-22.640625 33.597656-169.910156 52.3125-226.777344 37.074219-11.109375 93.523438-23.222656 163.382812-23.222656 67.996094 0 123.652344 11.476562 161.101563 22.339844 16.601563 55.183594 55.203125 205.707031 55.203125 227.660156 0 75.308594-56.523438 102-216 102zm73.480469-183.3125c6.59375-9.957031 10.445312-21.878906 10.445312-34.6875 0-27.722656-18.003906-51.300781-42.925781-59.703125v-33.296875h-40v30h-20.925781v-30h-40v30h-30.074219v40h30.074219v132h-30.074219v40h30.074219v30h40v-30h19.925781v30h40v-30.074219c33.351562-1.574219 60-29.195312 60-62.925781 0-21.148438-10.484375-39.882812-26.519531-51.3125zm-52.554688-57.6875c12.683594 0 23 10.316406 23 23s-10.316406 23-23 23h-40.851562v-46zm16.074219 132h-56.925781v-46h56.925781c12.683594 0 23 10.316406 23 23s-10.316406 23-23 23zm0 0" fill="#FFFFFF"/></svg>
